<?xml version="1.0" encoding="UTF-8" standalone="no"?>
<!-- Created with Inkscape (http://www.inkscape.org/) -->
<svg
   xmlns:dc="http://purl.org/dc/elements/1.1/"
   xmlns:cc="http://creativecommons.org/ns#"
   xmlns:rdf="http://www.w3.org/1999/02/22-rdf-syntax-ns#"
   xmlns:svg="http://www.w3.org/2000/svg"
   xmlns="http://www.w3.org/2000/svg"
   xmlns:sodipodi="http://sodipodi.sourceforge.net/DTD/sodipodi-0.dtd"
   xmlns:inkscape="http://www.inkscape.org/namespaces/inkscape"
   width="744.09448819"
   height="1052.3622047"
   id="svg2"
   sodipodi:version="0.32"
   inkscape:version="0.46"
   sodipodi:docname="Instruction-template.svg"
   inkscape:output_extension="org.inkscape.output.svg.inkscape"
   inkscape:export-filename="/Users/joe/Documents/Code/Footsie/Marquee.png"
   inkscape:export-xdpi="74.050003"
   inkscape:export-ydpi="74.050003">
  <defs
     id="defs4">
    <linearGradient
       id="linearGradient3155">
      <stop
         style="stop-color:#6c6c6c;stop-opacity:1;"
         offset="0"
         id="stop3157" />
      <stop
         style="stop-color:#e9e9e9;stop-opacity:1;"
         offset="1"
         id="stop3159" />
    </linearGradient>
    <inkscape:perspective
       sodipodi:type="inkscape:persp3d"
       inkscape:vp_x="0 : 526.18109 : 1"
       inkscape:vp_y="0 : 1000 : 0"
       inkscape:vp_z="744.09448 : 526.18109 : 1"
       inkscape:persp3d-origin="372.04724 : 350.78739 : 1"
       id="perspective10" />
  </defs>
  <sodipodi:namedview
     id="base"
     pagecolor="#000000"
     bordercolor="#666666"
     borderopacity="1.0"
     gridtolerance="10000"
     guidetolerance="10"
     objecttolerance="10"
     inkscape:pageopacity="0"
     inkscape:pageshadow="2"
     inkscape:zoom="0.68347552"
     inkscape:cx="190.72687"
     inkscape:cy="1453.7542"
     inkscape:document-units="px"
     inkscape:current-layer="layer1"
     showgrid="false"
     inkscape:window-width="1007"
     inkscape:window-height="701"
     inkscape:window-x="355"
     inkscape:window-y="93" />
  <metadata
     id="metadata7">
    <rdf:RDF>
      <cc:Work
         rdf:about="">
        <dc:format>image/svg+xml</dc:format>
        <dc:type
           rdf:resource="http://purl.org/dc/dcmitype/StillImage" />
      </cc:Work>
    </rdf:RDF>
  </metadata>
  <g
     inkscape:label="Layer 1"
     inkscape:groupmode="layer"
     id="layer1">
    <rect
       style="opacity:1;fill:#323232;fill-opacity:1;stroke:#bdbdbd;stroke-width:3.70000005;stroke-linecap:butt;stroke-linejoin:miter;stroke-miterlimit:4;stroke-dasharray:none;stroke-opacity:1"
       id="rect2570"
       width="160.59547"
       height="105.34244"
       x="135.44028"
       y="-458.54929"
       ry="19.109055" />
    <rect
       style="opacity:1;fill:#000000;fill-opacity:1;stroke:none;stroke-width:3.70000005;stroke-linecap:butt;stroke-linejoin:miter;stroke-miterlimit:4;stroke-dasharray:none;stroke-opacity:1"
       id="rect3342"
       width="111.46272"
       height="89.541077"
       x="159.51852"
       y="-450.2724"
       ry="10.832166" />
    <path
       sodipodi:type="arc"
       style="opacity:0.80099502;fill:#ffd3c2;fill-opacity:1;stroke:none;stroke-width:3.70000004999999987;stroke-linecap:butt;stroke-linejoin:miter;stroke-miterlimit:4;stroke-dasharray:none;stroke-opacity:1"
       id="path3364"
       sodipodi:cx="48.402672"
       sodipodi:cy="-237.22331"
       sodipodi:rx="20.744003"
       sodipodi:ry="20.744003"
       d="M 69.146675,-237.22331 A 20.744003,20.744003 0 1 1 27.658669,-237.22331 A 20.744003,20.744003 0 1 1 69.146675,-237.22331 z"
       transform="matrix(0.5454166,0,0,0.5454166,149.31077,-304.6786)" />
    <path
       transform="matrix(0.5454166,0,0,0.5454166,175.46317,-304.6786)"
       d="M 69.146675,-237.22331 A 20.744003,20.744003 0 1 1 27.658669,-237.22331 A 20.744003,20.744003 0 1 1 69.146675,-237.22331 z"
       sodipodi:ry="20.744003"
       sodipodi:rx="20.744003"
       sodipodi:cy="-237.22331"
       sodipodi:cx="48.402672"
       id="path3366"
       style="opacity:0.80099502;fill:#ffac72;fill-opacity:1;stroke:none;stroke-width:3.70000004999999987;stroke-linecap:butt;stroke-linejoin:miter;stroke-miterlimit:4;stroke-dasharray:none;stroke-opacity:1"
       sodipodi:type="arc" />
    <path
       sodipodi:type="arc"
       style="opacity:0.80099502;fill:#ffd7af;fill-opacity:1;stroke:none;stroke-width:3.70000004999999987;stroke-linecap:butt;stroke-linejoin:miter;stroke-miterlimit:4;stroke-dasharray:none;stroke-opacity:1"
       id="path3368"
       sodipodi:cx="48.402672"
       sodipodi:cy="-237.22331"
       sodipodi:rx="20.744003"
       sodipodi:ry="20.744003"
       d="M 69.146675,-237.22331 A 20.744003,20.744003 0 1 1 27.658669,-237.22331 A 20.744003,20.744003 0 1 1 69.146675,-237.22331 z"
       transform="matrix(0.5454166,0,0,0.5454166,201.92507,-304.6786)" />
    <path
       transform="matrix(0.5454166,0,0,0.5454166,228.38697,-304.6786)"
       d="M 69.146675,-237.22331 A 20.744003,20.744003 0 1 1 27.658669,-237.22331 A 20.744003,20.744003 0 1 1 69.146675,-237.22331 z"
       sodipodi:ry="20.744003"
       sodipodi:rx="20.744003"
       sodipodi:cy="-237.22331"
       sodipodi:cx="48.402672"
       id="path3370"
       style="opacity:0.80099502;fill:#fff9db;fill-opacity:1;stroke:none;stroke-width:3.70000004999999987;stroke-linecap:butt;stroke-linejoin:miter;stroke-miterlimit:4;stroke-dasharray:none;stroke-opacity:1"
       sodipodi:type="arc" />
    <path
       transform="matrix(0.5454166,0,0,0.5454166,149.31077,-248.6786)"
       d="M 69.146675,-237.22331 A 20.744003,20.744003 0 1 1 27.658669,-237.22331 A 20.744003,20.744003 0 1 1 69.146675,-237.22331 z"
       sodipodi:ry="20.744003"
       sodipodi:rx="20.744003"
       sodipodi:cy="-237.22331"
       sodipodi:cx="48.402672"
       id="path3372"
       style="opacity:0.80099502;fill:#ffd3c2;fill-opacity:1;stroke:none;stroke-width:3.70000004999999987;stroke-linecap:butt;stroke-linejoin:miter;stroke-miterlimit:4;stroke-dasharray:none;stroke-opacity:1"
       sodipodi:type="arc" />
    <path
       sodipodi:type="arc"
       style="opacity:0.80099502;fill:#ffac72;fill-opacity:1;stroke:none;stroke-width:3.70000004999999987;stroke-linecap:butt;stroke-linejoin:miter;stroke-miterlimit:4;stroke-dasharray:none;stroke-opacity:1"
       id="path3374"
       sodipodi:cx="48.402672"
       sodipodi:cy="-237.22331"
       sodipodi:rx="20.744003"
       sodipodi:ry="20.744003"
       d="M 69.146675,-237.22331 A 20.744003,20.744003 0 1 1 27.658669,-237.22331 A 20.744003,20.744003 0 1 1 69.146675,-237.22331 z"
       transform="matrix(0.5454166,0,0,0.5454166,175.46317,-248.6786)" />
    <path
       transform="matrix(0.5454166,0,0,0.5454166,201.92507,-248.6786)"
       d="M 69.146675,-237.22331 A 20.744003,20.744003 0 1 1 27.658669,-237.22331 A 20.744003,20.744003 0 1 1 69.146675,-237.22331 z"
       sodipodi:ry="20.744003"
       sodipodi:rx="20.744003"
       sodipodi:cy="-237.22331"
       sodipodi:cx="48.402672"
       id="path3376"
       style="opacity:0.80099502;fill:#ffd7af;fill-opacity:1;stroke:none;stroke-width:3.70000004999999987;stroke-linecap:butt;stroke-linejoin:miter;stroke-miterlimit:4;stroke-dasharray:none;stroke-opacity:1"
       sodipodi:type="arc" />
    <path
       sodipodi:type="arc"
       style="opacity:0.80099502;fill:#fff9db;fill-opacity:1;stroke:none;stroke-width:3.70000004999999987;stroke-linecap:butt;stroke-linejoin:miter;stroke-miterlimit:4;stroke-dasharray:none;stroke-opacity:1"
       id="path3378"
       sodipodi:cx="48.402672"
       sodipodi:cy="-237.22331"
       sodipodi:rx="20.744003"
       sodipodi:ry="20.744003"
       d="M 69.146675,-237.22331 A 20.744003,20.744003 0 1 1 27.658669,-237.22331 A 20.744003,20.744003 0 1 1 69.146675,-237.22331 z"
       transform="matrix(0.5454166,0,0,0.5454166,228.38697,-248.6786)" />
    <path
       sodipodi:type="arc"
       style="opacity:0.80099502;fill:#ffd3c2;fill-opacity:1;stroke:none;stroke-width:3.70000004999999987;stroke-linecap:butt;stroke-linejoin:miter;stroke-miterlimit:4;stroke-dasharray:none;stroke-opacity:1"
       id="path3380"
       sodipodi:cx="48.402672"
       sodipodi:cy="-237.22331"
       sodipodi:rx="20.744003"
       sodipodi:ry="20.744003"
       d="M 69.146675,-237.22331 A 20.744003,20.744003 0 1 1 27.658669,-237.22331 A 20.744003,20.744003 0 1 1 69.146675,-237.22331 z"
       transform="matrix(0.5454166,0,0,0.5454166,149.31077,-276.6786)" />
    <path
       transform="matrix(0.5454166,0,0,0.5454166,175.46317,-276.6786)"
       d="M 69.146675,-237.22331 A 20.744003,20.744003 0 1 1 27.658669,-237.22331 A 20.744003,20.744003 0 1 1 69.146675,-237.22331 z"
       sodipodi:ry="20.744003"
       sodipodi:rx="20.744003"
       sodipodi:cy="-237.22331"
       sodipodi:cx="48.402672"
       id="path3382"
       style="opacity:0.80099502;fill:#ffac72;fill-opacity:1;stroke:none;stroke-width:3.70000004999999987;stroke-linecap:butt;stroke-linejoin:miter;stroke-miterlimit:4;stroke-dasharray:none;stroke-opacity:1"
       sodipodi:type="arc" />
    <path
       sodipodi:type="arc"
       style="opacity:0.80099502;fill:#ffd7af;fill-opacity:1;stroke:none;stroke-width:3.70000004999999987;stroke-linecap:butt;stroke-linejoin:miter;stroke-miterlimit:4;stroke-dasharray:none;stroke-opacity:1"
       id="path3384"
       sodipodi:cx="48.402672"
       sodipodi:cy="-237.22331"
       sodipodi:rx="20.744003"
       sodipodi:ry="20.744003"
       d="M 69.146675,-237.22331 A 20.744003,20.744003 0 1 1 27.658669,-237.22331 A 20.744003,20.744003 0 1 1 69.146675,-237.22331 z"
       transform="matrix(0.5454166,0,0,0.5454166,201.92507,-276.6786)" />
    <path
       transform="matrix(0.5454166,0,0,0.5454166,228.38697,-276.6786)"
       d="M 69.146675,-237.22331 A 20.744003,20.744003 0 1 1 27.658669,-237.22331 A 20.744003,20.744003 0 1 1 69.146675,-237.22331 z"
       sodipodi:ry="20.744003"
       sodipodi:rx="20.744003"
       sodipodi:cy="-237.22331"
       sodipodi:cx="48.402672"
       id="path3386"
       style="opacity:0.80099502;fill:#fff9db;fill-opacity:1;stroke:none;stroke-width:3.70000004999999987;stroke-linecap:butt;stroke-linejoin:miter;stroke-miterlimit:4;stroke-dasharray:none;stroke-opacity:1"
       sodipodi:type="arc" />
  </g>
</svg>
